:FULLY-SPECIFIED
:FORCE-ALL-JOINTS-BE-3DOF
:DEGREES
1
root 6.24314 16.836 -28.1378 9.0217 -2.52979 -3.05774
lfemur -20.3712 2.30257 -19.9954
ltibia 35.927 0 0
lfoot -38.654 3.93715 0
ltoes 38.9541 0 0
rfemur -19.4747 0.22019 19.5256
rtibia 36.0342 0 0
rfoot -30.3779 -10.4967 0
rtoes 21.4483 0 0
lowerback -2.05144 3.66971 -5.03766
upperback -2.66728 5.00355 3.49279
thorax -2.36397 2.67023 6.42441
lowerneck -9.84699 -2.36864 1.94815
upperneck -1.37933 -3.32542 -1.65382
head 1.16433 -1.69823 -0.975663
lclavicle -1.65488e-014 -3.69739e-014 0
lhumerus -41.7253 -10.8128 99.8312
lradius 34.5094 0 0
lwrist 2.17521 0 0
lhand -10.5949 9.65639 0
lfingers 7.12502 0 0
lthumb 15.4107 39.062 0
rclavicle -1.65488e-014 -3.69739e-014 0
rhumerus -43.273 -4.86223 -84.2703
rradius 40.4763 0 0
rwrist 9.89469 0 0
rhand -23.7965 -22.476 0
rfingers 7.12502 0 0
rthumb 2.67393 -52.439 0
2
root 6.23525 16.838 -28.1358 9.0519 -2.50899 -3.0355
lfemur -20.3621 2.28096 -19.9868
ltibia 35.8593 -0 0
lfoot -38.5754 3.9479 0.00022138
ltoes 38.877 -0 0
rfemur -19.389 0.452426 19.5235
rtibia 35.859 -0 0
rfoot -30.2873 -10.7734 -0.00657904
rtoes 21.259 -0 0
lowerback -2.15738 3.63187 -4.91272
upperback -2.64584 4.95513 3.41302
thorax -2.26157 2.63711 6.27871
lowerneck -9.83833 -2.34672 1.96876
upperneck -1.41493 -3.29988 -1.58002
head 1.15251 -1.68412 -0.954615
lclavicle -2.99295e-014 3.23025e-015 0
lhumerus -41.7213 -10.8712 99.7467
lradius 34.6331 -0 0
lwrist 2.27816 0 0
lhand -10.6078 9.5559 0.000338692
lfingers 7.12502 -0 0
lthumb 15.3983 38.9625 0.000323168
rclavicle -2.99295e-014 3.23025e-015 0
rhumerus -43.1931 -4.87196 -84.4034
rradius 40.4366 -0 0
rwrist 9.93055 0 0
rhand -23.8952 -22.3943 -0.00211281
rfingers 7.12502 -0 0
rthumb 2.57857 -52.3578 -0.00202728
3
root 6.22735 16.8401 -28.1338 9.08211 -2.48819 -3.01325
lfemur -20.3531 2.25935 -19.9782
ltibia 35.7917 -0 0
lfoot -38.4967 3.95865 0.000428002
ltoes 38.8 -0 0
rfemur -19.3032 0.684666 19.5217
rtibia 35.6837 -0 0
rfoot -30.1966 -11.0501 -0.0127202
rtoes 21.0697 -0 0
lowerback -2.2634 3.59426 -4.78772
upperback -2.62433 4.90673 3.33325
thorax -2.15909 2.60425 6.13295
lowerneck -9.82966 -2.3248 1.98938
upperneck -1.45049 -3.27429 -1.50624
head 1.1407 -1.67001 -0.933571
lclavicle -2.99295e-014 3.23025e-015 0
lhumerus -41.7173 -10.9295 99.6621
lradius 34.7568 -0 0
lwrist 2.38111 0 0
lhand -10.6206 9.45542 0.00065481
lfingers 7.12502 -0 0
lthumb 15.3859 38.8629 0.000624795
rclavicle -2.99295e-014 3.23025e-015 0
rhumerus -43.1132 -4.88151 -84.5364
rradius 40.3968 -0 0
rwrist 9.96642 0 0
rhand -23.994 -22.3126 -0.00408481
rfingers 7.12502 -0 0
rthumb 2.4832 -52.2766 -0.00391946
4
root 6.21946 16.8421 -28.1318 9.11233 -2.46741 -2.99099
lfemur -20.344 2.23774 -19.9696
ltibia 35.724 -0 0
lfoot -38.4181 3.9694 0.000619868
ltoes 38.7229 -0 0
rfemur -19.2175 0.916907 19.5202
rtibia 35.5085 -0 0
rfoot -30.1059 -11.3268 -0.0184235
rtoes 20.8804 -0 0
lowerback -2.3695 3.55688 -4.66266
upperback -2.60275 4.85837 3.25346
thorax -2.05653 2.57166 5.98713
lowerneck -9.82099 -2.30288 2.01
upperneck -1.48602 -3.24866 -1.43248
head 1.12889 -1.6559 -0.91253
lclavicle -2.99295e-014 3.23025e-015 0
lhumerus -41.7131 -10.9879 99.5776
lradius 34.8806 -0 0
lwrist 2.48405 0 0
lhand -10.6335 9.35493 0.000948351
lfingers 7.12502 -0 0
lthumb 15.3735 38.7634 0.000904882
rclavicle -2.99295e-014 3.23025e-015 0
rhumerus -43.0333 -4.89088 -84.6695
rradius 40.3571 -0 0
rwrist 10.0023 0 0
rhand -24.0927 -22.2309 -0.005916
rfingers 7.12502 -0 0
rthumb 2.38784 -52.1955 -0.00567651
5
root 6.21157 16.8441 -28.1297 9.14255 -2.44664 -2.96872
lfemur -20.3349 2.21613 -19.9611
ltibia 35.6563 -0 0
lfoot -38.3394 3.98016 0.000796977
ltoes 38.6459 -0 0
rfemur -19.1318 1.14915 19.5191
rtibia 35.3332 -0 0
rfoot -30.0151 -11.6035 -0.0236885
rtoes 20.6911 -0 0
lowerback -2.47568 3.51973 -4.53753
upperback -2.58111 4.81003 3.17365
thorax -1.95389 2.53932 5.84126
lowerneck -9.81231 -2.28097 2.03062
upperneck -1.52152 -3.22298 -1.35873
head 1.11709 -1.64178 -0.891491
lclavicle -2.99295e-014 3.23025e-015 0
lhumerus -41.7089 -11.0462 99.493
lradius 35.0043 -0 0
lwrist 2.587 0 0
lhand -10.6464 9.25444 0.00121932
lfingers 7.12502 -0 0
lthumb 15.3611 38.6638 0.00116343
rclavicle -2.99295e-014 3.23025e-015 0
rhumerus -42.9533 -4.90005 -84.8027
rradius 40.3173 -0 0
rwrist 10.0381 0 0
rhand -24.1915 -22.1492 -0.00760636
rfingers 7.12502 -0 0
rthumb 2.29247 -52.1143 -0.00729844
6
root 6.20368 16.8461 -28.1277 9.17278 -2.42588 -2.94643
lfemur -20.3259 2.19451 -19.9525
ltibia 35.5886 -0 0
lfoot -38.2608 3.99091 0.000959327
ltoes 38.5688 -0 0
rfemur -19.046 1.3814 19.5184
rtibia 35.158 -0 0
rfoot -29.9244 -11.8803 -0.0285153
rtoes 20.5018 -0 0
lowerback -2.58193 3.48281 -4.41233
upperback -2.5594 4.76173 3.09384
thorax -1.85117 2.50724 5.69534
lowerneck -9.80362 -2.25906 2.05124
upperneck -1.55698 -3.19726 -1.285
head 1.10529 -1.62766 -0.870456
lclavicle -2.99295e-014 3.23025e-015 0
lhumerus -41.7045 -11.1046 99.4084
lradius 35.128 -0 0
lwrist 2.68995 0 0
lhand -10.6593 9.15395 0.0014677
lfingers 7.12502 -0 0
lthumb 15.3487 38.5643 0.00140043
rclavicle -2.99295e-014 3.23025e-015 0
rhumerus -42.8734 -4.90905 -84.9358
rradius 40.2776 -0 0
rwrist 10.074 0 0
rhand -24.2902 -22.0674 -0.00915589
rfingers 7.12502 -0 0
rthumb 2.1971 -52.0331 -0.00878524
